<?xml version="1.0" encoding="UTF-8" standalone="no"?>
<!-- Created with Inkscape (http://www.inkscape.org/) -->

<svg
   xmlns:dc="http://purl.org/dc/elements/1.1/"
   xmlns:cc="http://creativecommons.org/ns#"
   xmlns:rdf="http://www.w3.org/1999/02/22-rdf-syntax-ns#"
   xmlns:svg="http://www.w3.org/2000/svg"
   xmlns="http://www.w3.org/2000/svg"
   xmlns:xlink="http://www.w3.org/1999/xlink"
   xmlns:sodipodi="http://sodipodi.sourceforge.net/DTD/sodipodi-0.dtd"
   xmlns:inkscape="http://www.inkscape.org/namespaces/inkscape"
   width="297mm"
   height="210mm"
   viewBox="0 0 297 210"
   version="1.1"
   id="svg8"
   inkscape:version="0.92.2 (5c3e80d, 2017-08-06)"
   sodipodi:docname="caja1.svg">
  <defs
     id="defs2">
    <inkscape:path-effect
       effect="spiro"
       id="path-effect1541"
       is_visible="true" />
    <inkscape:path-effect
       effect="spiro"
       id="path-effect1529"
       is_visible="true" />
    <linearGradient
       inkscape:collect="always"
       id="linearGradient917">
      <stop
         style="stop-color:#000000;stop-opacity:1;"
         offset="0"
         id="stop913" />
      <stop
         style="stop-color:#000000;stop-opacity:0;"
         offset="1"
         id="stop915" />
    </linearGradient>
    <inkscape:path-effect
       effect="spiro"
       id="path-effect903"
       is_visible="true" />
    <inkscape:path-effect
       effect="spiro"
       id="path-effect896"
       is_visible="true" />
    <inkscape:path-effect
       effect="spiro"
       id="path-effect890"
       is_visible="true" />
    <inkscape:path-effect
       effect="spiro"
       id="path-effect885"
       is_visible="true" />
    <inkscape:path-effect
       effect="spiro"
       id="path-effect881"
       is_visible="true" />
    <inkscape:path-effect
       effect="spiro"
       id="path-effect933"
       is_visible="true" />
    <inkscape:path-effect
       effect="spiro"
       id="path-effect929"
       is_visible="true" />
    <inkscape:path-effect
       effect="spiro"
       id="path-effect921"
       is_visible="true" />
    <inkscape:path-effect
       effect="spiro"
       id="path-effect917"
       is_visible="true" />
    <inkscape:path-effect
       effect="spiro"
       id="path-effect909"
       is_visible="true" />
    <inkscape:path-effect
       effect="spiro"
       id="path-effect905"
       is_visible="true" />
    <inkscape:path-effect
       effect="spiro"
       id="path-effect901"
       is_visible="true" />
    <inkscape:path-effect
       effect="spiro"
       id="path-effect897"
       is_visible="true" />
    <inkscape:path-effect
       effect="spiro"
       id="path-effect893"
       is_visible="true" />
    <inkscape:path-effect
       effect="spiro"
       id="path-effect889"
       is_visible="true" />
    <inkscape:path-effect
       effect="spiro"
       id="path-effect883"
       is_visible="true" />
    <inkscape:path-effect
       effect="spiro"
       id="path-effect875"
       is_visible="true" />
    <inkscape:path-effect
       effect="spiro"
       id="path-effect869"
       is_visible="true" />
    <inkscape:path-effect
       effect="spiro"
       id="path-effect865"
       is_visible="true" />
    <inkscape:path-effect
       effect="spiro"
       id="path-effect861"
       is_visible="true" />
    <inkscape:path-effect
       effect="spiro"
       id="path-effect857"
       is_visible="true" />
    <inkscape:path-effect
       effect="spiro"
       id="path-effect853"
       is_visible="true" />
    <inkscape:path-effect
       effect="spiro"
       id="path-effect849"
       is_visible="true" />
    <inkscape:path-effect
       effect="spiro"
       id="path-effect845"
       is_visible="true" />
    <inkscape:path-effect
       effect="spiro"
       id="path-effect841"
       is_visible="true" />
    <inkscape:path-effect
       effect="spiro"
       id="path-effect837"
       is_visible="true" />
    <inkscape:path-effect
       effect="spiro"
       id="path-effect829"
       is_visible="true" />
    <linearGradient
       inkscape:collect="always"
       xlink:href="#linearGradient917"
       id="linearGradient919"
       x1="43.432602"
       y1="202.82984"
       x2="297.37894"
       y2="202.82984"
       gradientUnits="userSpaceOnUse" />
  </defs>
  <sodipodi:namedview
     id="base"
     pagecolor="#ffffff"
     bordercolor="#666666"
     borderopacity="1.0"
     inkscape:pageopacity="0.0"
     inkscape:pageshadow="2"
     inkscape:zoom="0.61580177"
     inkscape:cx="751.40995"
     inkscape:cy="503.2019"
     inkscape:document-units="mm"
     inkscape:current-layer="layer1"
     showgrid="false"
     inkscape:window-width="1366"
     inkscape:window-height="705"
     inkscape:window-x="-8"
     inkscape:window-y="-8"
     inkscape:window-maximized="1"
     showguides="false" />
  <metadata
     id="metadata5">
    <rdf:RDF>
      <cc:Work
         rdf:about="">
        <dc:format>image/svg+xml</dc:format>
        <dc:type
           rdf:resource="http://purl.org/dc/dcmitype/StillImage" />
        <dc:title />
      </cc:Work>
    </rdf:RDF>
  </metadata>
  <g
     inkscape:label="Capa 1"
     inkscape:groupmode="layer"
     id="layer1"
     transform="translate(0,-87)">
    <path
       style="fill:url(#linearGradient919);stroke:none;stroke-width:0.26458332px;stroke-linecap:butt;stroke-linejoin:miter;stroke-opacity:1;fill-opacity:1"
       d="m 43.432602,264.42779 214.457408,-154.27561 38.36955,59.98604 1.11938,125.36928 z"
       id="path911"
       inkscape:connector-curvature="0" />
    <rect
       style="opacity:1;fill:#b3b3b3;fill-opacity:1;fill-rule:nonzero;stroke:#000000;stroke-width:2.56500006;stroke-linecap:butt;stroke-linejoin:miter;stroke-miterlimit:4;stroke-dasharray:none;stroke-dashoffset:0;stroke-opacity:1;paint-order:stroke fill markers"
       id="rect815"
       width="214.45743"
       height="154.27562"
       x="43.432602"
       y="110.15218"
       ry="0" />
    <ellipse
       style="opacity:1;fill:#000000;fill-opacity:1;fill-rule:nonzero;stroke:none;stroke-width:2.56500006;stroke-linecap:butt;stroke-linejoin:miter;stroke-miterlimit:4;stroke-dasharray:none;stroke-dashoffset:0;stroke-opacity:1;paint-order:stroke fill markers"
       id="path835"
       cx="153.3535"
       cy="189.91373"
       rx="61.938396"
       ry="60.072784" />
    <ellipse
       style="opacity:1;fill:#ffffff;fill-opacity:1;fill-rule:nonzero;stroke:none;stroke-width:2.56583357;stroke-linecap:butt;stroke-linejoin:miter;stroke-miterlimit:4;stroke-dasharray:none;stroke-dashoffset:0;stroke-opacity:1;paint-order:stroke fill markers"
       id="path837"
       cx="169.90535"
       cy="140.37926"
       rx="14.632265"
       ry="19.702316"
       transform="matrix(0.97178133,0.23588355,-0.20070439,0.97965185,0,0)" />
    <ellipse
       style="opacity:1;fill:#ffffff;fill-opacity:1;fill-rule:nonzero;stroke:none;stroke-width:2.56583357;stroke-linecap:butt;stroke-linejoin:miter;stroke-miterlimit:4;stroke-dasharray:none;stroke-dashoffset:0;stroke-opacity:1;paint-order:stroke fill markers"
       id="path837-8"
       cx="-129.15207"
       cy="211.2446"
       rx="14.632264"
       ry="19.702316"
       transform="matrix(-0.97178133,0.23588355,0.20070439,0.97965185,0,0)" />
    <ellipse
       style="opacity:1;fill:#000000;fill-opacity:1;fill-rule:nonzero;stroke:none;stroke-width:2.56500006;stroke-linecap:butt;stroke-linejoin:miter;stroke-miterlimit:4;stroke-dasharray:none;stroke-dashoffset:0;stroke-opacity:1;paint-order:stroke fill markers"
       id="path854"
       cx="145.33136"
       cy="178.53348"
       rx="4.6640363"
       ry="6.1565275" />
    <ellipse
       style="opacity:1;fill:#000000;fill-opacity:1;fill-rule:nonzero;stroke:none;stroke-width:2.56500006;stroke-linecap:butt;stroke-linejoin:miter;stroke-miterlimit:4;stroke-dasharray:none;stroke-dashoffset:0;stroke-opacity:1;paint-order:stroke fill markers"
       id="path854-2"
       cx="158.95035"
       cy="177.60068"
       rx="4.6640363"
       ry="6.156528" />
    <path
       style="opacity:1;fill:#000000;fill-opacity:1;fill-rule:nonzero;stroke:none;stroke-width:2.56500006;stroke-linecap:butt;stroke-linejoin:miter;stroke-miterlimit:4;stroke-dasharray:none;stroke-dashoffset:0;stroke-opacity:1;paint-order:stroke fill markers"
       id="path873"
       d="m 153.59557,133.23925 c 0.35652,-1.33505 1.31039,-2.33544 2.22828,-3.31719 0.90119,-0.94951 1.79392,-1.72644 2.96919,-2.30376 1.48014,-0.70391 3.01964,-1.29306 4.56814,-1.83007 1.36099,-0.4613 2.79252,-0.70173 4.11499,-1.27284 0.85694,-0.44319 1.7653,-0.6695 2.71778,-0.76924 1.27322,-0.0835 2.55046,-0.0707 3.82574,-0.0703 1.01764,0.0497 2.01705,-0.008 3.02233,-0.15594 0.86989,-0.13428 1.75043,-0.17115 2.62901,-0.19603 0.83845,-0.018 1.67717,-0.0154 2.51576,-0.015 0.81043,7.9e-4 1.62087,0.002 2.43131,0.002 0.88148,-0.0552 1.7129,0.0239 2.54992,0.30517 0.78215,0.26709 1.57259,0.49459 2.38673,0.63838 1.22385,0.34567 2.41328,0.81231 3.57948,1.31649 1.08564,0.58105 2.3033,0.76408 3.46406,1.11741 1.16512,0.3226 2.26183,0.84169 3.35284,1.35442 1.05108,0.40357 2.04243,0.91007 3.00764,1.48771 0.9657,0.54143 1.89094,1.14966 2.81166,1.7634 0.97238,0.62213 1.89015,1.31828 2.80586,2.01988 1.26424,0.99786 2.49963,2.02984 3.77396,3.01522 0.87743,0.68054 1.81883,1.26942 2.65156,2.00679 0.55977,0.48087 1.08904,0.99977 1.59749,1.53482 0.67676,0.7551 1.26758,1.58515 1.86051,2.40698 0.80499,1.16508 1.62741,2.31832 2.45635,3.46652 0.83312,1.12249 1.49683,2.35881 2.34246,3.47116 0.98623,1.22647 1.8089,2.57353 2.63321,3.91156 0.93731,1.68283 1.98239,3.30219 2.90731,4.99213 0.60198,1.3066 1.19763,2.61586 1.79528,3.92449 0.6693,1.5434 1.06918,3.17683 1.54176,4.78557 0.42011,1.53007 0.98152,3.01251 1.34762,4.55855 0.23534,1.04023 0.26885,2.10812 0.28604,3.16983 0.007,1.13088 -5.3e-4,2.2618 -0.004,3.39269 -0.003,0.9688 -0.004,1.9376 -0.004,2.90641 0.0137,0.11131 0.0273,0.22263 0.041,0.33395 0.0882,0.78658 -1.02415,0.91136 -1.11239,0.12478 v 0 c -0.016,-0.15312 -0.032,-0.30624 -0.048,-0.45936 5.3e-4,-0.96966 0.002,-1.93931 0.004,-2.90896 0.003,-1.12384 0.0106,-2.24771 0.004,-3.37155 -0.0156,-0.98112 -0.0416,-1.96863 -0.25622,-2.93057 -0.3594,-1.5269 -0.92158,-2.98843 -1.33221,-4.50031 -0.45749,-1.55778 -0.84269,-3.13972 -1.48598,-4.63602 -0.58646,-1.28421 -1.17266,-2.56825 -1.75916,-3.85239 -0.91463,-1.6737 -1.95192,-3.27552 -2.87843,-4.9424 -0.80483,-1.30822 -1.60852,-2.62494 -2.57284,-3.82325 -0.84548,-1.12336 -1.52656,-2.35649 -2.35724,-3.49118 -0.82876,-1.14843 -1.6516,-2.30148 -2.4565,-3.46672 -0.56404,-0.78179 -1.1248,-1.57228 -1.76594,-2.2927 -0.48416,-0.51465 -0.99421,-1.00852 -1.52968,-1.46894 -0.80658,-0.7272 -1.74321,-1.28105 -2.59106,-1.9565 -1.27256,-0.98479 -2.5077,-2.01442 -3.76985,-3.01206 -0.89624,-0.68669 -1.79343,-1.36927 -2.74596,-1.97702 -0.90578,-0.60383 -1.81566,-1.20275 -2.76617,-1.73464 -0.93311,-0.56001 -1.89158,-1.04493 -2.90878,-1.435 -1.04343,-0.49148 -2.092,-0.9899 -3.20695,-1.29787 -1.19514,-0.37651 -2.46023,-0.55052 -3.57892,-1.15993 -1.08556,-0.47276 -2.19596,-0.89944 -3.33018,-1.24135 -0.86902,-0.15583 -1.71471,-0.39387 -2.54975,-0.68026 -0.7202,-0.24644 -1.42991,-0.29354 -2.19127,-0.24596 -0.81044,-5.3e-4 -1.62087,-0.001 -2.43131,-0.002 -0.82788,-5.3e-4 -1.65588,-0.003 -2.48362,0.0145 -0.83474,0.0234 -1.67152,0.057 -2.49802,0.18461 -1.05897,0.15534 -2.11379,0.21787 -3.18527,0.1678 -1.23718,-5.3e-4 -2.47613,-0.0126 -3.71151,0.0645 -0.84187,0.0836 -1.63618,0.28958 -2.39172,0.68498 -1.35113,0.57238 -2.79561,0.85035 -4.18856,1.30126 -1.50642,0.521 -3.00367,1.09453 -4.44344,1.77826 -1.03413,0.50114 -1.8521,1.22865 -2.6429,2.06268 -0.77464,0.82704 -1.61071,1.65944 -1.94798,2.77188 -0.15523,0.77615 -1.25285,0.55662 -1.09763,-0.21952 z"
       inkscape:connector-curvature="0" />
    <circle
       style="opacity:1;fill:#000000;fill-opacity:1;fill-rule:nonzero;stroke:none;stroke-width:2.56500006;stroke-linecap:butt;stroke-linejoin:miter;stroke-miterlimit:4;stroke-dasharray:none;stroke-dashoffset:0;stroke-opacity:1;paint-order:stroke fill markers"
       id="path875"
       cx="233.38837"
       cy="185.62282"
       r="7.6490192" />
    <ellipse
       style="opacity:1;fill:#000000;fill-opacity:1;fill-rule:nonzero;stroke:none;stroke-width:2.56500006;stroke-linecap:butt;stroke-linejoin:miter;stroke-miterlimit:4;stroke-dasharray:none;stroke-dashoffset:0;stroke-opacity:1;paint-order:stroke fill markers"
       id="path877"
       cx="157.39224"
       cy="130.04758"
       rx="6.781827"
       ry="4.6439619" />
    <path
       style="fill:none;stroke:#000000;stroke-width:0.565;stroke-linecap:butt;stroke-linejoin:miter;stroke-opacity:1;stroke-miterlimit:4;stroke-dasharray:none"
       d="M 43.432602,264.42779 80.594543,232.44974 80.967667,109.69231"
       id="path879"
       inkscape:connector-curvature="0"
       inkscape:path-effect="#path-effect881"
       inkscape:original-d="M 43.432602,264.42779 80.594543,232.44974 80.967667,109.69231"
       sodipodi:nodetypes="ccc" />
    <path
       style="fill:none;stroke:#000000;stroke-width:0.565;stroke-linecap:butt;stroke-linejoin:miter;stroke-opacity:1;stroke-miterlimit:4;stroke-dasharray:none"
       d="m 80.594543,232.44974 150.741647,1.11937"
       id="path883"
       inkscape:connector-curvature="0"
       inkscape:path-effect="#path-effect885"
       inkscape:original-d="m 80.594543,232.44974 150.741647,1.11937" />
    <path
       style="fill:none;stroke:#000000;stroke-width:0.665;stroke-linecap:butt;stroke-linejoin:miter;stroke-opacity:1;stroke-miterlimit:4;stroke-dasharray:none"
       d="m 230.96306,109.31919 0.37313,124.24992 26.55382,30.85869"
       id="path887"
       inkscape:connector-curvature="0"
       inkscape:path-effect="#path-effect890"
       inkscape:original-d="m 230.96306,109.31919 0.37313,124.24992 26.55382,30.85869" />
    <path
       style="opacity:1;fill:#80b3ff;fill-opacity:1;fill-rule:nonzero;stroke:none;stroke-width:0.56499988;stroke-linecap:butt;stroke-linejoin:miter;stroke-miterlimit:4;stroke-dasharray:none;stroke-dashoffset:0;stroke-opacity:1;paint-order:stroke fill markers"
       d="m 108.63698,160.67815 c -0.39196,0 -7.1125,13.90422 -6.83244,14.1357 1.09602,-1.92191 0,0 0,0 -1.17028,1.56182 -1.80447,3.49605 -1.807799,5.4877 8.1e-5,4.89656 3.758919,8.86591 8.395559,8.86577 4.63651,-5e-5 8.39514,-3.96935 8.39522,-8.86577 -5.3e-4,-1.99223 -0.51474,-4.13983 -1.68343,-5.70371 -0.13746,-0.34842 -1.48538,-3.04388 -3.06555,-6.76736 -1.89883,-4.47443 -3.17242,-7.15233 -3.40156,-7.15233 z"
       id="path892"
       inkscape:connector-curvature="0"
       sodipodi:nodetypes="scccccccs" />
    <path
       style="opacity:1;fill:#afdde9;fill-opacity:1;fill-rule:nonzero;stroke:none;stroke-width:0.56499994;stroke-linecap:butt;stroke-linejoin:miter;stroke-miterlimit:4;stroke-dasharray:none;stroke-dashoffset:0;stroke-opacity:1;paint-order:stroke fill markers"
       d="m 109.64744,188.72684 c -0.10515,-0.13219 -0.36778,-0.46606 -0.58361,-0.74194 -0.21585,-0.27588 -0.6578,-0.80463 -0.9821,-1.175 -0.32432,-0.37037 -0.69043,-0.8746 -0.8136,-1.1205 -0.12317,-0.24591 -0.36428,-0.52782 -0.5358,-0.62649 -0.17154,-0.0987 -0.31186,-0.24384 -0.31186,-0.32259 0,-0.0788 -0.14281,-0.3256 -0.31734,-0.54852 -0.3042,-0.38855 -0.31478,-0.451 -0.25583,-1.51058 0.0338,-0.60791 0.12185,-1.15829 0.19566,-1.22307 0.0738,-0.0648 0.13416,-0.33892 0.13416,-0.60917 0,-0.27024 0.0519,-0.53702 0.11535,-0.59283 0.0635,-0.0558 0.17563,-0.38989 0.24931,-0.74239 0.24406,-1.16753 0.27771,-1.27354 0.45334,-1.42772 0.0958,-0.0841 0.14575,-0.24875 0.11088,-0.36578 -0.0385,-0.12923 0.0533,-0.34715 0.2339,-0.55495 0.16349,-0.1882 0.29902,-0.40974 0.30114,-0.49232 0.002,-0.0826 0.0843,-0.24346 0.18251,-0.35749 0.0983,-0.11405 0.17863,-0.35679 0.17863,-0.53944 0,-0.18265 0.058,-0.38296 0.1288,-0.44514 0.0869,-0.0763 0.10622,-0.83877 0.0594,-2.34467 -0.0382,-1.22738 -0.0988,-3.88276 -0.13479,-5.90085 -0.0577,-3.23929 -0.0427,-3.69965 0.12829,-3.92876 0.10653,-0.14273 0.19737,-0.4143 0.20185,-0.60349 0.0213,-0.89785 0.13841,-1.78602 0.2354,-1.78602 0.25136,0 1.19819,1.95615 3.34567,6.91211 1.71917,3.96749 2.74211,6.16613 3.46852,7.45496 0.33112,0.58751 0.74623,1.54887 0.92248,2.13637 0.28227,0.94096 0.32181,1.28446 0.33215,2.8841 0.0102,1.58436 -0.0241,1.93077 -0.26865,2.71672 -0.87199,2.80162 -2.92369,5.0017 -5.4397,5.83312 -0.97665,0.32273 -1.09366,0.32469 -1.33417,0.0223 z"
       id="path909"
       inkscape:connector-curvature="0" />
    <path
       style="opacity:1;fill:#f9f9f9;fill-opacity:1;fill-rule:nonzero;stroke:none;stroke-width:0.56499988;stroke-linecap:butt;stroke-linejoin:miter;stroke-miterlimit:4;stroke-dasharray:none;stroke-dashoffset:0;stroke-opacity:1;paint-order:stroke fill markers"
       d="m 188.06476,209.55378 c -14.17812,0.77974 -11.82442,10.80135 -62.50812,6.61668 9.13068,13.11504 9.05522,13.31103 19.49756,17.8881 31.12944,-0.93625 34.73758,-6.47574 41.08916,-17.17118 0.93964,-2.35235 1.58444,-4.81344 1.9214,-7.3336 z"
       id="path1533"
       inkscape:connector-curvature="0"
       sodipodi:nodetypes="ccccc" />
    <path
       style="fill:none;stroke:none;stroke-width:0.26458332px;stroke-linecap:butt;stroke-linejoin:miter;stroke-opacity:1"
       d="m 145.0542,234.05856 c -0.067,0.50874 -0.37033,0.98139 -0.8049,1.25425 -0.43458,0.27285 -0.99207,0.34069 -1.4794,0.18 -0.48732,-0.16069 -0.89513,-0.54681 -1.08218,-1.02464 -0.18705,-0.47783 -0.14975,-1.03819 0.099,-1.48701 0.19738,-0.35616 0.51131,-0.63144 0.8277,-0.88777 0.31638,-0.25634 0.6458,-0.50571 0.89092,-0.83086 0.15598,-0.20691 0.27379,-0.43941 0.40116,-0.66506 0.12736,-0.22565 0.26741,-0.44853 0.45816,-0.62391 0.075,-0.069 0.15711,-0.12986 0.23357,-0.19724 0.0765,-0.0674 0.14814,-0.14248 0.19608,-0.23242 0.0565,-0.10604 0.0773,-0.22764 0.084,-0.34762 0.007,-0.11999 4e-5,-0.24038 0.006,-0.36041 0.006,-0.12004 0.0241,-0.24178 0.0778,-0.34931 0.0268,-0.0538 0.0623,-0.10349 0.10667,-0.14404 0.0443,-0.0405 0.0976,-0.0717 0.15561,-0.0876 0.0694,-0.019 0.14277,-0.0156 0.21441,-0.009 0.0716,0.007 0.14365,0.0161 0.21524,0.009 0.13531,-0.0132 0.26026,-0.0861 0.35428,-0.18425 0.094,-0.0982 0.15952,-0.22049 0.20974,-0.34683 0.10044,-0.25268 0.14601,-0.53063 0.2953,-0.75789 0.11164,-0.16995 0.27358,-0.29932 0.42966,-0.42965 0.46714,-0.39008 0.90635,-0.81569 1.28897,-1.28897 0.12809,-0.15843 0.2542,-0.32609 0.42965,-0.42966 0.14008,-0.0827 0.30189,-0.11856 0.45615,-0.17017 0.0771,-0.0258 0.15325,-0.056 0.22314,-0.0976 0.0699,-0.0416 0.13364,-0.0951 0.18003,-0.16194 0.069,-0.0994 0.096,-0.22253 0.10319,-0.34336 0.007,-0.12082 -0.004,-0.24195 -0.004,-0.36298 3.8e-4,-0.12104 0.013,-0.24481 0.0644,-0.35438 0.0257,-0.0548 0.0611,-0.10541 0.10619,-0.14576 0.0451,-0.0404 0.10014,-0.0702 0.15939,-0.0825 0.0706,-0.0147 0.14359,-0.004 0.21511,0.005 0.0715,0.009 0.14548,0.016 0.21455,-0.005 0.0493,-0.0147 0.0937,-0.043 0.13198,-0.0774 0.0383,-0.0344 0.0707,-0.0747 0.10099,-0.11622 0.0606,-0.0831 0.11521,-0.17333 0.19668,-0.23607 0.0975,-0.0751 0.22399,-0.10267 0.34693,-0.10689 0.12293,-0.004 0.24553,0.0128 0.36847,0.017 0.12293,0.004 0.24982,-0.005 0.36057,-0.0588 0.0554,-0.0268 0.10591,-0.0645 0.14414,-0.11268 0.0382,-0.0482 0.0638,-0.10702 0.0689,-0.16831 0.006,-0.0731 -0.0165,-0.14517 -0.0292,-0.21745 -0.006,-0.0361 -0.0102,-0.073 -0.007,-0.10955 0.003,-0.0365 0.0145,-0.0729 0.036,-0.10266 0.023,-0.0318 0.0571,-0.0548 0.0942,-0.0674 0.0372,-0.0125 0.0773,-0.015 0.11627,-0.0104 0.0779,0.009 0.14975,0.0452 0.21984,0.0805 0.0701,0.0353 0.14223,0.0709 0.22027,0.079 0.039,0.004 0.0791,9.6e-4 0.11606,-0.0123 0.0369,-0.0132 0.0705,-0.037 0.0927,-0.0694 0.0207,-0.0302 0.0307,-0.0668 0.0333,-0.10332 0.003,-0.0365 -0.002,-0.0732 -0.009,-0.1092 -0.0133,-0.072 -0.035,-0.14464 -0.0246,-0.21713 0.007,-0.0516 0.0309,-0.1 0.0625,-0.14136 0.0316,-0.0414 0.0712,-0.0761 0.11306,-0.10708 0.0838,-0.0619 0.17826,-0.10985 0.25413,-0.18122 0.075,-0.0706 0.12824,-0.16059 0.19073,-0.24246 0.0312,-0.0409 0.0651,-0.0802 0.10459,-0.11327 0.0395,-0.0331 0.0848,-0.06 0.13433,-0.0739 0.0692,-0.0195 0.14263,-0.0139 0.2143,-0.009 0.0717,0.005 0.14349,0.009 0.21536,0.009 h 1.28897 3.86691 4.29657 1.28897 0.42965 c 0.0719,0 0.1438,-0.004 0.21549,-0.01 0.0717,-0.006 0.1456,-0.0121 0.21417,0.01 0.049,0.0155 0.0926,0.0452 0.12982,0.0807 0.0372,0.0355 0.0684,0.0767 0.0979,0.11874 0.0592,0.084 0.11543,0.17465 0.20188,0.23025 0.0615,0.0395 0.13458,0.0584 0.20751,0.063 0.0729,0.005 0.14607,-0.004 0.218,-0.0174 0.14387,-0.0258 0.28923,-0.067 0.43381,-0.0456 0.10733,0.0159 0.20914,0.0671 0.28586,0.14379 0.0767,0.0767 0.12793,0.17854 0.14379,0.28587 0.11639,-0.10538 0.27265,-0.16561 0.42966,-0.16561 0.15701,0 0.31327,0.0602 0.42966,0.16561 0.0758,0.0686 0.13382,0.15405 0.19797,0.23362 0.0641,0.0796 0.13772,0.15584 0.23169,0.19603 0.067,0.0287 0.14126,0.0374 0.21406,0.0343 0.0728,-0.003 0.14461,-0.0177 0.21559,-0.0343 0.29056,-0.0676 0.57478,-0.16802 0.87127,-0.20097 0.14825,-0.0165 0.29934,-0.0157 0.44538,0.0146 0.14604,0.0304 0.28711,0.0912 0.40198,0.18633 0.15972,0.13229 0.25956,0.32096 0.3786,0.49079 0.0595,0.0849 0.12514,0.16652 0.20464,0.2331 0.0795,0.0666 0.17388,0.1178 0.27607,0.13543 0.0707,0.0122 0.14299,0.009 0.21463,0.005 0.0716,-0.003 0.14332,-0.005 0.21503,-0.005 h 0.42965 c 0.14442,0 0.28861,-0.01 0.43212,-0.0262 0.0718,-0.008 0.14378,-0.0159 0.21598,-0.0148 0.0722,0.001 0.14524,0.0117 0.21122,0.041 0.0933,0.0415 0.16643,0.1178 0.23069,0.19718 0.0643,0.0794 0.12287,0.16434 0.19896,0.23247 0.11681,0.10459 0.27287,0.16425 0.42966,0.16425 0.15679,0 0.31285,-0.0597 0.42966,-0.16425 0.32748,0.0249 0.64293,0.1826 0.85931,0.42966 0.13726,0.15672 0.23383,0.34454 0.35953,0.51066 0.0629,0.0831 0.13349,0.16111 0.21683,0.2236 0.0833,0.0625 0.18002,0.10911 0.28296,0.12505 0.0709,0.011 0.14303,0.008 0.21466,0.005 0.0716,-0.003 0.1433,-0.005 0.21499,-0.005 h 0.42966 c 0.23434,0 0.47165,0.005 0.69723,0.0685 0.22558,0.0635 0.4372,0.18497 0.59174,0.36113 0.1386,0.15798 0.22784,0.35266 0.35088,0.52303 0.0615,0.0852 0.13223,0.16489 0.21749,0.22631 0.0853,0.0614 0.18603,0.10394 0.29094,0.10997 0.0721,0.004 0.14388,-0.009 0.21568,-0.0163 0.0718,-0.007 0.14641,-0.009 0.21398,0.0163 0.048,0.0181 0.0903,0.0492 0.12658,0.0854 0.0363,0.0362 0.067,0.0776 0.0966,0.11947 0.0593,0.0837 0.11801,0.17283 0.20645,0.22478 0.064,0.0376 0.13972,0.0527 0.21389,0.0501 0.0742,-0.003 0.14697,-0.0222 0.21576,-0.0501 0.15539,-0.0629 0.29451,-0.16846 0.45844,-0.20357 0.082,-0.0176 0.17003,-0.016 0.24673,0.0178 0.0384,0.0169 0.0734,0.0418 0.1006,0.0737 0.0272,0.0319 0.0465,0.0708 0.0536,0.11209 0.006,0.0364 0.003,0.0738 -0.004,0.11005 -0.007,0.0363 -0.0169,0.0718 -0.0246,0.1079 -0.008,0.0361 -0.0132,0.073 -0.0102,0.10982 0.003,0.0368 0.0149,0.0736 0.0386,0.10189 0.0243,0.029 0.0597,0.0475 0.0967,0.0555 0.037,0.008 0.0756,0.006 0.11283,-4.1e-4 0.0745,-0.0132 0.14508,-0.045 0.22011,-0.0551 0.10674,-0.0143 0.21654,0.0171 0.30786,0.0742 0.0913,0.0571 0.16543,0.13852 0.22658,0.22719 0.12229,0.17732 0.19616,0.38519 0.32487,0.55791 0.19849,0.26635 0.52714,0.43068 0.85932,0.42966"
       id="path1539"
       inkscape:connector-curvature="0"
       inkscape:path-effect="#path-effect1541"
       inkscape:original-d="m 145.0542,234.05856 c -1.08917,-0.35914 -2.44949,-0.27359 -3.2675,-1.0774 -0.79876,-0.78489 1.5359,-1.53591 1.71862,-1.71863 0.36514,-0.36514 0.54949,-0.87586 0.85932,-1.28897 0.12152,-0.16204 0.33907,-0.2485 0.42965,-0.42966 0.20254,-0.40508 0.17844,-0.91213 0.42966,-1.28897 0.0794,-0.11916 0.32839,0.10127 0.42965,0 0.36514,-0.36513 0.54949,-0.87586 0.85932,-1.28897 0.12152,-0.16203 0.28644,-0.28644 0.42966,-0.42965 0.42965,-0.42966 0.85931,-0.85932 1.28897,-1.28897 0.14321,-0.14322 0.26113,-0.31731 0.42965,-0.42966 0.26646,-0.17764 0.66717,-0.17346 0.85932,-0.42966 0.27173,-0.36232 0.17843,-0.91213 0.42965,-1.28897 0.0794,-0.11916 0.30156,0.064 0.42966,0 0.18116,-0.0906 0.2485,-0.33907 0.42965,-0.42965 0.40509,-0.20255 0.91214,-0.17844 1.28898,-0.42966 0.11916,-0.0794 -0.1281,-0.36561 0,-0.42966 0.25619,-0.1281 0.60311,0.1281 0.85931,0 0.1281,-0.0641 -0.0641,-0.30156 0,-0.42965 0.0906,-0.18116 0.28644,-0.28644 0.42966,-0.42966 0.14321,-0.14322 0.24849,-0.33908 0.42965,-0.42966 0.1281,-0.064 0.28644,0 0.42966,0 0.42966,0 0.85931,0 1.28897,0 1.28897,0 2.57794,0 3.86691,0 1.43219,0 2.86438,0 4.29657,0 0.42965,0 0.85931,0 1.28897,0 0.14321,0 0.28643,0 0.42965,0 0.14322,0 0.30156,-0.064 0.42966,0 0.18116,0.0906 0.2485,0.33908 0.42965,0.42966 0.2562,0.1281 0.60312,-0.1281 0.85932,0 0.18116,0.0906 0.28644,0.28644 0.42965,0.42966 0.28644,0 0.58758,-0.0906 0.85932,0 0.19215,0.0641 0.24849,0.33907 0.42966,0.42965 0.12809,0.0641 0.28643,0 0.42965,0 0.30597,0 1.58391,-0.0449 1.71863,0 0.3843,0.1281 0.49699,0.67816 0.85931,0.85932 0.1281,0.064 0.28644,0 0.42966,0 0.14322,0 0.28644,0 0.42965,0 0.28644,0 0.58758,-0.0906 0.85932,0 0.19215,0.064 0.24849,0.33907 0.42965,0.42965 0.45663,0.22832 0.40269,-0.22831 0.85932,0 1.42499,1.42499 -0.40509,-0.20254 0.85931,0.42966 0.36232,0.18116 0.497,0.67815 0.85932,0.85931 0.12809,0.064 0.28643,0 0.42965,0 0.14322,0 0.28644,0 0.42966,0 0.63951,0 0.54841,-0.0641 1.28897,0.42966 0.33705,0.2247 0.49699,0.67815 0.85931,0.85931 0.1281,0.0641 0.30156,-0.064 0.42966,0 0.18116,0.0906 0.2485,0.33908 0.42966,0.42966 0.12809,0.0641 0.28643,0 0.42965,0 0.28644,0 0.60312,-0.1281 0.85932,0 0.12809,0.0641 -0.10128,0.32838 0,0.42966 0.10127,0.10127 0.30155,-0.064 0.42965,0 0.36232,0.18116 0.52226,0.63461 0.85931,0.85931 0.26647,0.17764 0.57288,0.28644 0.85932,0.42966"
       inkscape:transform-center-x="-7.7338199"
       inkscape:transform-center-y="5.1558799" />
    <path
       style="opacity:1;fill:#aa0000;fill-opacity:1;fill-rule:nonzero;stroke:none;stroke-width:0.56499994;stroke-linecap:butt;stroke-linejoin:miter;stroke-miterlimit:4;stroke-dasharray:none;stroke-dashoffset:0;stroke-opacity:1;paint-order:stroke fill markers"
       d="m 145.0542,234.05856 c -0.81916,-0.62508 -0.81522,-0.65998 0.21483,-1.89864 0.57713,-0.69401 1.43602,-1.81747 1.90864,-2.49657 1.04022,-1.49465 5.33776,-5.79958 5.78964,-5.79958 0.17776,0 0.82069,-0.49748 1.42872,-1.10551 l 1.10552,-1.10552 6.36465,0.18467 c 5.71891,0.16594 8.95788,0.63996 10.89257,1.59412 0.36355,0.1793 1.46415,0.46169 2.44579,0.62754 0.98163,0.16584 2.01293,0.57644 2.29178,0.91243 0.27885,0.336 0.94302,0.6109 1.47592,0.6109 0.53291,0 1.19544,0.27293 1.4723,0.60652 0.40407,0.48689 0.22376,0.81641 -0.91412,1.67057 -5.19385,3.89879 -13.96781,6.00233 -27.41172,6.57191 -5.13721,0.21765 -6.3764,0.15225 -7.06452,-0.37284 z"
       id="path1543"
       inkscape:connector-curvature="0" />
  </g>
</svg>
