<?xml version="1.0" encoding="UTF-8" standalone="no"?>
<!-- Created with Inkscape (http://www.inkscape.org/) -->

<svg
   xmlns:dc="http://purl.org/dc/elements/1.1/"
   xmlns:cc="http://creativecommons.org/ns#"
   xmlns:rdf="http://www.w3.org/1999/02/22-rdf-syntax-ns#"
   xmlns:svg="http://www.w3.org/2000/svg"
   xmlns="http://www.w3.org/2000/svg"
   xmlns:sodipodi="http://sodipodi.sourceforge.net/DTD/sodipodi-0.dtd"
   xmlns:inkscape="http://www.inkscape.org/namespaces/inkscape"
   width="297mm"
   height="210mm"
   viewBox="0 0 297 210"
   version="1.1"
   id="svg8"
   inkscape:version="0.92.2 (5c3e80d, 2017-08-06)"
   sodipodi:docname="caja.svg">
  <defs
     id="defs2">
    <inkscape:path-effect
       effect="spiro"
       id="path-effect933"
       is_visible="true" />
    <inkscape:path-effect
       effect="spiro"
       id="path-effect929"
       is_visible="true" />
    <inkscape:path-effect
       effect="spiro"
       id="path-effect921"
       is_visible="true" />
    <inkscape:path-effect
       effect="spiro"
       id="path-effect917"
       is_visible="true" />
    <inkscape:path-effect
       effect="spiro"
       id="path-effect909"
       is_visible="true" />
    <inkscape:path-effect
       effect="spiro"
       id="path-effect905"
       is_visible="true" />
    <inkscape:path-effect
       effect="spiro"
       id="path-effect901"
       is_visible="true" />
    <inkscape:path-effect
       effect="spiro"
       id="path-effect897"
       is_visible="true" />
    <inkscape:path-effect
       effect="spiro"
       id="path-effect893"
       is_visible="true" />
    <inkscape:path-effect
       effect="spiro"
       id="path-effect889"
       is_visible="true" />
    <inkscape:path-effect
       effect="spiro"
       id="path-effect883"
       is_visible="true" />
    <inkscape:path-effect
       effect="spiro"
       id="path-effect875"
       is_visible="true" />
    <inkscape:path-effect
       effect="spiro"
       id="path-effect869"
       is_visible="true" />
    <inkscape:path-effect
       effect="spiro"
       id="path-effect865"
       is_visible="true" />
    <inkscape:path-effect
       effect="spiro"
       id="path-effect861"
       is_visible="true" />
    <inkscape:path-effect
       effect="spiro"
       id="path-effect857"
       is_visible="true" />
    <inkscape:path-effect
       effect="spiro"
       id="path-effect853"
       is_visible="true" />
    <inkscape:path-effect
       effect="spiro"
       id="path-effect849"
       is_visible="true" />
    <inkscape:path-effect
       effect="spiro"
       id="path-effect845"
       is_visible="true" />
    <inkscape:path-effect
       effect="spiro"
       id="path-effect841"
       is_visible="true" />
    <inkscape:path-effect
       effect="spiro"
       id="path-effect837"
       is_visible="true" />
    <inkscape:path-effect
       effect="spiro"
       id="path-effect829"
       is_visible="true" />
  </defs>
  <sodipodi:namedview
     id="base"
     pagecolor="#ffffff"
     bordercolor="#666666"
     borderopacity="1.0"
     inkscape:pageopacity="0.0"
     inkscape:pageshadow="2"
     inkscape:zoom="0.70910507"
     inkscape:cx="606.94815"
     inkscape:cy="161.59591"
     inkscape:document-units="mm"
     inkscape:current-layer="layer1"
     showgrid="false"
     inkscape:window-width="1366"
     inkscape:window-height="705"
     inkscape:window-x="-8"
     inkscape:window-y="-8"
     inkscape:window-maximized="1" />
  <metadata
     id="metadata5">
    <rdf:RDF>
      <cc:Work
         rdf:about="">
        <dc:format>image/svg+xml</dc:format>
        <dc:type
           rdf:resource="http://purl.org/dc/dcmitype/StillImage" />
        <dc:title />
      </cc:Work>
    </rdf:RDF>
  </metadata>
  <g
     inkscape:label="Capa 1"
     inkscape:groupmode="layer"
     id="layer1"
     transform="translate(0,-87)">
    <rect
       style="opacity:1;fill:#b3b3b3;fill-opacity:1;fill-rule:nonzero;stroke:#000000;stroke-width:2.565;stroke-linecap:butt;stroke-linejoin:miter;stroke-miterlimit:4;stroke-dasharray:none;stroke-dashoffset:0;stroke-opacity:1;paint-order:stroke fill markers"
       id="rect815"
       width="214.45743"
       height="154.27562"
       x="42.987011"
       y="115.49927"
       ry="0" />
    <rect
       style="opacity:1;fill:#b3b3b3;fill-opacity:1;fill-rule:nonzero;stroke:#000000;stroke-width:2.56500006;stroke-linecap:butt;stroke-linejoin:miter;stroke-miterlimit:4;stroke-dasharray:none;stroke-dashoffset:0;stroke-opacity:1;paint-order:stroke fill markers"
       id="rect817"
       width="195.82973"
       height="133.25974"
       x="52.539688"
       y="126.00721" />
    <ellipse
       style="opacity:1;fill:#b3b3b3;fill-opacity:1;fill-rule:nonzero;stroke:#000000;stroke-width:2.56500006;stroke-linecap:butt;stroke-linejoin:miter;stroke-miterlimit:4;stroke-dasharray:none;stroke-dashoffset:0;stroke-opacity:1;paint-order:stroke fill markers"
       id="path819"
       cx="215.4127"
       cy="187.62193"
       rx="22.448774"
       ry="21.971142" />
    <ellipse
       style="opacity:1;fill:#b3b3b3;fill-opacity:1;fill-rule:nonzero;stroke:#000000;stroke-width:2.56499958;stroke-linecap:butt;stroke-linejoin:miter;stroke-miterlimit:4;stroke-dasharray:none;stroke-dashoffset:0;stroke-opacity:1;paint-order:stroke fill markers"
       id="path821"
       cx="215.89035"
       cy="187.3831"
       rx="12.896105"
       ry="12.179652" />
    <path
       style="fill:none;stroke:#000000;stroke-width:0.26458332px;stroke-linecap:butt;stroke-linejoin:miter;stroke-opacity:1"
       d="m 214.46356,165.11336 0.84435,9.11893"
       id="path827"
       inkscape:connector-curvature="0"
       inkscape:path-effect="#path-effect829"
       inkscape:original-d="m 214.46356,165.11336 0.84435,9.11893" />
    <path
       style="fill:none;stroke:#000000;stroke-width:0.26458332px;stroke-linecap:butt;stroke-linejoin:miter;stroke-opacity:1"
       d="m 197.9144,173.0502 7.0925,5.57267"
       id="path835"
       inkscape:connector-curvature="0"
       inkscape:path-effect="#path-effect837"
       inkscape:original-d="m 197.9144,173.0502 7.0925,5.57267" />
    <path
       style="fill:none;stroke:#000000;stroke-width:0.26458332px;stroke-linecap:butt;stroke-linejoin:miter;stroke-opacity:1"
       d="m 193.0172,184.87102 8.95005,1.18209"
       id="path839"
       inkscape:connector-curvature="0"
       inkscape:path-effect="#path-effect841"
       inkscape:original-d="m 193.0172,184.87102 8.95005,1.18209" />
    <path
       style="fill:none;stroke:#000000;stroke-width:0.26458332px;stroke-linecap:butt;stroke-linejoin:miter;stroke-opacity:1"
       d="m 196.56345,199.73149 7.09249,-5.57267"
       id="path843"
       inkscape:connector-curvature="0"
       inkscape:path-effect="#path-effect845"
       inkscape:original-d="m 196.56345,199.73149 7.09249,-5.57267" />
    <path
       style="fill:none;stroke:#000000;stroke-width:0.26458332px;stroke-linecap:butt;stroke-linejoin:miter;stroke-opacity:1"
       d="m 210.74844,199.90036 -3.37738,8.61232"
       id="path847"
       inkscape:connector-curvature="0"
       inkscape:path-effect="#path-effect849"
       inkscape:original-d="m 210.74844,199.90036 -3.37738,8.61232" />
    <path
       style="fill:none;stroke:#000000;stroke-width:0.26458332px;stroke-linecap:butt;stroke-linejoin:miter;stroke-opacity:1"
       d="m 219.36076,200.2381 3.37737,8.27458"
       id="path851"
       inkscape:connector-curvature="0"
       inkscape:path-effect="#path-effect853"
       inkscape:original-d="m 219.36076,200.2381 3.37737,8.27458" />
    <path
       style="fill:none;stroke:#000000;stroke-width:0.26458332px;stroke-linecap:butt;stroke-linejoin:miter;stroke-opacity:1"
       d="m 226.79099,196.01638 7.93684,3.71511"
       id="path855"
       inkscape:connector-curvature="0"
       inkscape:path-effect="#path-effect857"
       inkscape:original-d="m 226.79099,196.01638 7.93684,3.71511" />
    <path
       style="fill:none;stroke:#000000;stroke-width:0.26458332px;stroke-linecap:butt;stroke-linejoin:miter;stroke-opacity:1"
       d="m 229.66176,188.92388 8.78119,-0.16887"
       id="path859"
       inkscape:connector-curvature="0"
       inkscape:path-effect="#path-effect861"
       inkscape:original-d="m 229.66176,188.92388 8.78119,-0.16887" />
    <path
       style="fill:none;stroke:#000000;stroke-width:0.26458332px;stroke-linecap:butt;stroke-linejoin:miter;stroke-opacity:1"
       d="m 228.64855,180.48043 6.24815,-3.71511"
       id="path863"
       inkscape:connector-curvature="0"
       inkscape:path-effect="#path-effect865"
       inkscape:original-d="m 228.64855,180.48043 6.24815,-3.71511" />
    <path
       style="fill:#666666;stroke:#000000;stroke-width:0.26458332px;stroke-linecap:butt;stroke-linejoin:miter;stroke-opacity:1"
       d="m 221.38718,174.90776 3.37738,-7.43024"
       id="path867"
       inkscape:connector-curvature="0"
       inkscape:path-effect="#path-effect869"
       inkscape:original-d="m 221.38718,174.90776 3.37738,-7.43024" />
    <path
       style="opacity:1;fill:#999999;fill-opacity:1;fill-rule:nonzero;stroke:#000000;stroke-width:9.69448853;stroke-linecap:butt;stroke-linejoin:miter;stroke-miterlimit:4;stroke-dasharray:none;stroke-dashoffset:0;stroke-opacity:1;paint-order:stroke fill markers"
       d="m 809.13195,424.7555 c -19.96995,-3.06159 -35.43414,-16.26835 -40.31556,-34.43041 -1.77892,-6.61872 -1.49286,-17.46231 0.6314,-23.93418 2.35398,-7.17172 5.72449,-12.61597 11.28226,-18.22373 19.4033,-19.57782 51.74303,-19.37047 70.94512,0.45488 7.97603,8.23491 11.93768,17.32971 12.50382,28.70518 0.41523,8.34315 -0.8744,14.30098 -4.79081,22.1326 -2.38128,4.76182 -3.96094,6.8889 -8.40437,11.31683 -8.85927,8.82838 -19.41698,13.47824 -32.31493,14.23226 -3.13911,0.18352 -7.43072,0.0695 -9.53693,-0.25343 z"
       id="path871"
       inkscape:connector-curvature="0"
       transform="matrix(0.26458333,0,0,0.26458333,0,87)" />
    <path
       style="opacity:1;fill:#808080;fill-opacity:1;fill-rule:nonzero;stroke:none;stroke-width:2.56500006;stroke-linecap:butt;stroke-linejoin:miter;stroke-miterlimit:4;stroke-dasharray:none;stroke-dashoffset:0;stroke-opacity:1;paint-order:stroke fill markers"
       d="m 212.57592,199.38322 c -4.23003,-1.11613 -7.48568,-4.09552 -8.84592,-8.0953 -0.55844,-1.64206 -0.69472,-4.41578 -0.31048,-6.31854 0.38812,-1.92194 1.3726,-3.84285 2.75995,-5.38517 1.14655,-1.27463 1.47152,-1.44823 1.47152,-0.78608 0,0.56141 0.51326,1.95087 0.8685,2.35113 0.35111,0.39561 1.48647,1.0755 1.79599,1.0755 0.0967,0 0.38514,0.15466 0.64082,0.34367 0.25568,0.18902 0.57123,0.3013 0.70124,0.2495 0.13,-0.0518 0.33174,0.0251 0.4483,0.17095 0.11655,0.14581 0.37574,0.26512 0.57595,0.26512 0.20022,0 0.52251,0.17513 0.71619,0.38919 0.32499,0.35914 0.35391,0.58943 0.37465,2.98374 l 0.0224,2.59456 0.52158,0.5157 c 0.31401,0.31046 0.91615,0.63233 1.51295,0.80874 0.54524,0.16118 1.12449,0.36446 1.28722,0.45174 0.16272,0.0873 0.36636,0.11347 0.45254,0.0582 0.0862,-0.0553 0.39914,0.0119 0.69548,0.14935 0.29635,0.13744 0.82686,0.29256 1.1789,0.3447 0.35205,0.0521 0.77489,0.22145 0.93963,0.37625 0.16476,0.15479 0.37346,0.23402 0.46378,0.17607 0.0904,-0.0579 0.21278,-0.0238 0.27214,0.0759 0.0594,0.0997 0.23989,0.13784 0.40117,0.0847 0.16204,-0.0534 0.38661,0.0202 0.50199,0.16456 0.11483,0.14366 0.28071,0.26119 0.36862,0.26119 0.32528,0 1.1215,0.95508 1.1215,1.34527 0,0.2216 0.13813,0.60781 0.30697,0.85824 0.16882,0.25043 0.34545,0.6734 0.39252,0.93992 0.0745,0.42206 -0.0238,0.57481 -0.76134,1.18346 -1.00906,0.83267 -3.10483,1.90304 -4.48184,2.289 -1.59044,0.44578 -4.84975,0.48591 -6.39298,0.0787 z"
       id="path879"
       inkscape:connector-curvature="0" />
    <path
       style="opacity:1;fill:#cccccc;fill-opacity:1;fill-rule:nonzero;stroke:none;stroke-width:2.56500006;stroke-linecap:butt;stroke-linejoin:miter;stroke-miterlimit:4;stroke-dasharray:none;stroke-dashoffset:0;stroke-opacity:1;paint-order:stroke fill markers"
       d="m 52.539688,191.72537 v -65.71816 h 45.064754 45.064748 l -9.2526,13.59395 c -62.469853,91.78089 -80.110785,117.587 -80.461905,117.70404 -0.327224,0.10908 -0.414997,-13.76144 -0.414997,-65.57983 z"
       id="path885"
       inkscape:connector-curvature="0" />
    <path
       style="fill:none;stroke:#000000;stroke-width:0.26458332px;stroke-linecap:butt;stroke-linejoin:miter;stroke-opacity:1"
       d="m 205.34463,167.64639 4.3906,7.43024"
       id="path887"
       inkscape:connector-curvature="0"
       inkscape:path-effect="#path-effect889"
       inkscape:original-d="m 205.34463,167.64639 4.3906,7.43024" />
    <path
       style="fill:none;stroke:#000000;stroke-width:0.26458332px;stroke-linecap:butt;stroke-linejoin:miter;stroke-opacity:1"
       d="m 223.58248,198.0428 5.23494,7.43024"
       id="path891"
       inkscape:connector-curvature="0"
       inkscape:path-effect="#path-effect893"
       inkscape:original-d="m 223.58248,198.0428 5.23494,7.43024" />
    <path
       style="fill:none;stroke:#000000;stroke-width:0.26458332px;stroke-linecap:butt;stroke-linejoin:miter;stroke-opacity:1"
       d="m 214.08282,199.38322 0.88734,9.9738"
       id="path895"
       inkscape:connector-curvature="0"
       inkscape:path-effect="#path-effect897"
       inkscape:original-d="m 214.08282,199.38322 0.88734,9.9738" />
    <path
       style="fill:none;stroke:#000000;stroke-width:0.26458332px;stroke-linecap:butt;stroke-linejoin:miter;stroke-opacity:1"
       d="m 200.95404,204.45982 6.41702,-7.43023"
       id="path899"
       inkscape:connector-curvature="0"
       inkscape:path-effect="#path-effect901"
       inkscape:original-d="m 200.95404,204.45982 6.41702,-7.43023" />
    <path
       style="fill:none;stroke:#000000;stroke-width:0.26458332px;stroke-linecap:butt;stroke-linejoin:miter;stroke-opacity:1"
       d="m 193.35494,190.95031 8.78118,-0.67548"
       id="path903"
       inkscape:connector-curvature="0"
       inkscape:path-effect="#path-effect905"
       inkscape:original-d="m 193.35494,190.95031 8.78118,-0.67548" />
    <path
       style="fill:none;stroke:#000000;stroke-width:0.26458332px;stroke-linecap:butt;stroke-linejoin:miter;stroke-opacity:1"
       d="m 194.87476,177.9474 7.76797,3.88398"
       id="path907"
       inkscape:connector-curvature="0"
       inkscape:path-effect="#path-effect909"
       inkscape:original-d="m 194.87476,177.9474 7.76797,3.88398" />
    <path
       style="fill:none;stroke:#000000;stroke-width:0.26458332px;stroke-linecap:butt;stroke-linejoin:miter;stroke-opacity:1"
       d="m 224.76456,177.60966 6.24815,-6.41702"
       id="path915"
       inkscape:connector-curvature="0"
       inkscape:path-effect="#path-effect917"
       inkscape:original-d="m 224.76456,177.60966 6.24815,-6.41702" />
    <path
       style="fill:none;stroke:#000000;stroke-width:0.26458332px;stroke-linecap:butt;stroke-linejoin:miter;stroke-opacity:1"
       d="m 228.14194,192.80787 h 4.8972 c 0.11352,0 0.22686,-0.008 0.33966,-0.0206 0.0564,-0.006 0.11302,-0.0125 0.16977,-0.0116 0.0568,8.8e-4 0.11416,0.009 0.16605,0.0321 0.0586,0.026 0.10735,0.0694 0.15998,0.10605 0.0263,0.0183 0.0539,0.0351 0.0838,0.0468 0.0298,0.0118 0.062,0.0184 0.094,0.016 0.0316,-0.002 0.0618,-0.0134 0.0909,-0.0258 0.0291,-0.0124 0.0577,-0.0263 0.0882,-0.035 0.0304,-0.009 0.0633,-0.0119 0.0936,-0.003 0.0151,0.005 0.0294,0.0124 0.0409,0.0232 0.0115,0.0108 0.0203,0.0248 0.0241,0.0402 0.004,0.014 0.003,0.0288 7.2e-4,0.0431 -0.002,0.0143 -0.006,0.0282 -0.009,0.0423 -0.003,0.0141 -0.006,0.0285 -0.005,0.043 7e-4,0.0144 0.005,0.029 0.0136,0.0405 0.009,0.0119 0.023,0.0197 0.0375,0.0232 0.0146,0.004 0.0299,0.003 0.0447,5.8e-4 0.0296,-0.005 0.0572,-0.0181 0.0867,-0.0238 0.0517,-0.01 0.10601,0.004 0.15187,0.0299 0.0459,0.0259 0.0843,0.0632 0.11949,0.10235 0.0352,0.0392 0.0679,0.0807 0.1053,0.11781 0.0374,0.0371 0.0803,0.07 0.12995,0.0877 0.0541,0.0193 0.11479,0.0193 0.16886,0 l 0.33774,0.16887 c 0.0545,-0.0174 0.11439,-0.0174 0.16887,0 0.0605,0.0194 0.11218,0.0587 0.16472,0.0943 0.0525,0.0357 0.10971,0.0693 0.17302,0.0745 0.0282,0.002 0.0564,-0.001 0.0846,-0.003 0.0282,-0.002 0.0569,-0.003 0.0843,0.003 0.0399,0.01 0.0742,0.0359 0.10097,0.067 0.0268,0.0311 0.0469,0.0673 0.0669,0.10311 0.02,0.0358 0.0404,0.0719 0.0676,0.10263 0.0272,0.0307 0.0621,0.0562 0.10222,0.065 0.0276,0.006 0.0562,0.004 0.0843,0.003 0.0282,-0.002 0.0563,-0.003 0.0846,-0.003 h 0.16886"
       id="path919"
       inkscape:connector-curvature="0"
       inkscape:path-effect="#path-effect921"
       inkscape:original-d="m 228.14194,192.80787 c 1.6324,0 3.2648,0 4.8972,0 0.005,0 0.62432,-0.0171 0.67548,0 0.1194,0.0398 0.21832,0.12906 0.33773,0.16886 0.0704,0.0235 0.31052,-0.0272 0.33774,0 0.0398,0.0398 -0.0398,0.12907 0,0.16887 0.0398,0.0398 0.11547,-0.0178 0.16887,0 1.22319,0.40773 -0.26624,-0.0487 0.50661,0.33774 0.0503,0.0252 0.11546,-0.0178 0.16886,0 0.11258,0.0563 0.22517,0.11258 0.33774,0.16887 0.0563,0 0.11547,-0.0178 0.16887,0 0.11941,0.0398 0.21833,0.12907 0.33774,0.16887 0.0534,0.0178 0.11852,-0.0252 0.16887,0 0.1424,0.0712 0.19534,0.26654 0.33774,0.33774 0.0503,0.0252 0.11258,0 0.16887,0 0.0563,0 0.11257,0 0.16886,0" />
    <path
       style="fill:none;stroke:#000000;stroke-width:0.26458332px;stroke-linecap:butt;stroke-linejoin:miter;stroke-opacity:1"
       d="m 229.49289,184.19555 8.10571,-1.68869"
       id="path927"
       inkscape:connector-curvature="0"
       inkscape:path-effect="#path-effect929"
       inkscape:original-d="m 229.49289,184.19555 8.10571,-1.68869" />
    <path
       style="opacity:1;fill:#cccccc;fill-opacity:1;fill-rule:nonzero;stroke:none;stroke-width:2.56500006;stroke-linecap:butt;stroke-linejoin:miter;stroke-miterlimit:4;stroke-dasharray:none;stroke-dashoffset:0;stroke-opacity:1;paint-order:stroke fill markers"
       d="m 187.8114,269.46642 c 0,-0.16967 2.54822,-2.22558 5.6627,-4.56869 l 5.66269,-4.2602 h 25.37284 25.37284 v -18.90678 -18.90677 l 3.61695,-2.67631 c 1.98932,-1.47197 3.69076,-2.67631 3.78098,-2.67631 0.0902,0 0.16403,11.7683 0.16403,26.15177 v 26.15177 h -34.81652 c -22.50426,0 -34.81651,-0.10909 -34.81651,-0.30848 z"
       id="path937"
       inkscape:connector-curvature="0" />
    <path
       style="opacity:1;fill:#cccccc;fill-opacity:1;fill-rule:nonzero;stroke:none;stroke-width:2.56500006;stroke-linecap:butt;stroke-linejoin:miter;stroke-miterlimit:4;stroke-dasharray:none;stroke-dashoffset:0;stroke-opacity:1;paint-order:stroke fill markers"
       d="m 201.73735,259.01448 c 0,-0.24562 45.71904,-34.45965 46.32712,-34.66908 0.19414,-0.0669 0.30495,6.25857 0.30495,17.40825 v 17.51329 h -23.31604 c -12.82382,0 -23.31603,-0.11361 -23.31603,-0.25246 z"
       id="path939"
       inkscape:connector-curvature="0" />
    <rect
       style="opacity:1;fill:#cccccc;fill-opacity:1;fill-rule:nonzero;stroke:none;stroke-width:2.56500006;stroke-linecap:butt;stroke-linejoin:miter;stroke-miterlimit:4;stroke-dasharray:none;stroke-dashoffset:0;stroke-opacity:1;paint-order:stroke fill markers"
       id="rect941"
       width="41.590767"
       height="8.8222828"
       x="195.03549"
       y="213.81848" />
    <text
       xml:space="preserve"
       style="font-style:normal;font-variant:normal;font-weight:normal;font-stretch:normal;font-size:10.58333302px;line-height:1.25;font-family:Forte;-inkscape-font-specification:Forte;letter-spacing:0px;word-spacing:0px;fill:#000000;fill-opacity:1;stroke:none;stroke-width:0.26458332"
       x="202.59744"
       y="220.75027"
       id="text945"><tspan
         sodipodi:role="line"
         id="tspan943"
         x="202.59744"
         y="220.75027"
         style="font-style:normal;font-variant:normal;font-weight:normal;font-stretch:normal;font-size:7.05555534px;font-family:'Futura Bk BT';-inkscape-font-specification:'Futura Bk BT';stroke-width:0.26458332">B564738</tspan></text>
  </g>
</svg>
